<svg width="134" height="134" viewBox="0 0 134 134" fill="none" xmlns="http://www.w3.org/2000/svg">
<path d="M134 7.44421V104.219C134 106.193 133.216 108.087 131.82 109.483C130.424 110.879 128.53 111.663 126.556 111.663C124.581 111.663 122.688 110.879 121.292 109.483C119.896 108.087 119.112 106.193 119.112 104.219V25.4127L12.7151 131.818C11.3183 133.215 9.42378 134 7.44835 134C5.47293 134 3.57841 133.215 2.18157 131.818C0.784734 130.422 0 128.527 0 126.552C0 124.576 0.784734 122.682 2.18157 121.285L108.587 14.8884H29.781C27.8067 14.8884 25.9132 14.1041 24.5171 12.7081C23.1211 11.312 22.3368 9.41854 22.3368 7.44421C22.3368 5.46989 23.1211 3.57642 24.5171 2.18036C25.9132 0.7843 27.8067 0 29.781 0H126.556C128.53 0 130.424 0.7843 131.82 2.18036C133.216 3.57642 134 5.46989 134 7.44421Z" fill="#B78D58"/>
</svg>
