<svg width="32" height="32" viewBox="0 0 32 32" fill="none" xmlns="http://www.w3.org/2000/svg">
<circle cx="16" cy="16" r="16" fill="#F0F0F0"/>
<path d="M24.5311 14.281L20.0311 18.781C19.8903 18.9218 19.6995 19.0008 19.5004 19.0008C19.3014 19.0008 19.1106 18.9218 18.9698 18.781C18.8291 18.6403 18.75 18.4494 18.75 18.2504C18.75 18.0514 18.8291 17.8605 18.9698 17.7198L22.1901 14.5004H18.4692C16.6398 14.4999 14.8622 15.1075 13.4157 16.2275C11.9693 17.3476 10.9362 18.9166 10.4789 20.6879C10.4292 20.8806 10.3049 21.0457 10.1335 21.1468C9.96208 21.2479 9.75752 21.2767 9.56482 21.227C9.37213 21.1773 9.20708 21.053 9.10598 20.8816C9.00489 20.7102 8.97603 20.5056 9.02576 20.3129C9.5654 18.219 10.7862 16.3641 12.4958 15.0403C14.2055 13.7164 16.3069 12.9988 18.4692 13.0004H22.192L18.9698 9.78104C18.9001 9.71136 18.8449 9.62863 18.8072 9.53759C18.7694 9.44654 18.75 9.34896 18.75 9.25042C18.75 9.15187 18.7694 9.05429 18.8072 8.96324C18.8449 8.8722 18.9001 8.78947 18.9698 8.71979C19.1106 8.57906 19.3014 8.5 19.5004 8.5C19.599 8.5 19.6966 8.51941 19.7876 8.55712C19.8787 8.59483 19.9614 8.65011 20.0311 8.71979L24.5311 13.2198C24.6008 13.2894 24.6561 13.3722 24.6939 13.4632C24.7316 13.5543 24.751 13.6519 24.751 13.7504C24.751 13.849 24.7316 13.9466 24.6939 14.0376C24.6561 14.1287 24.6008 14.2114 24.5311 14.281Z" fill="black"/>
</svg>
