<svg xmlns="http://www.w3.org/2000/svg" width="20" height="20" viewBox="0 0 20 20" fill="none">
  <path d="M17.416 1.66699H2.58268C2.33957 1.66699 2.10641 1.76357 1.9345 1.93548C1.76259 2.10739 1.66602 2.34054 1.66602 2.58366V17.417C1.66602 17.6601 1.76259 17.8933 1.9345 18.0652C2.10641 18.2371 2.33957 18.3337 2.58268 18.3337H10.566V11.8753H8.39935V9.37533H10.566V7.50033C10.5211 7.06012 10.5731 6.61543 10.7183 6.19744C10.8635 5.77945 11.0983 5.39828 11.4064 5.08067C11.7145 4.76306 12.0883 4.51669 12.5017 4.35886C12.9151 4.20102 13.358 4.13554 13.7993 4.16699C14.448 4.16251 15.0963 4.1959 15.741 4.26699V6.51699H14.416C13.366 6.51699 13.166 7.01699 13.166 7.74199V9.35033H15.666L15.341 11.8503H13.166V18.3337H17.416C17.5364 18.3337 17.6556 18.3099 17.7668 18.2639C17.878 18.2178 17.9791 18.1503 18.0642 18.0652C18.1493 17.9801 18.2168 17.879 18.2629 17.7678C18.309 17.6566 18.3327 17.5374 18.3327 17.417V2.58366C18.3327 2.46328 18.309 2.34408 18.2629 2.23287C18.2168 2.12165 18.1493 2.0206 18.0642 1.93548C17.9791 1.85036 17.878 1.78284 17.7668 1.73677C17.6556 1.6907 17.5364 1.66699 17.416 1.66699Z" fill="#575F60"/>
</svg>