<svg width="24" height="24" viewBox="0 0 24 24" fill="none" xmlns="http://www.w3.org/2000/svg">
<g id="Campfire">
<path id="Vector" d="M20.9643 21.2266C20.9345 21.3205 20.8865 21.4076 20.823 21.4829C20.7595 21.5582 20.6817 21.6203 20.5942 21.6655C20.5067 21.7108 20.4112 21.7384 20.313 21.7467C20.2149 21.7551 20.116 21.744 20.0222 21.7141L12 19.1613L3.97778 21.7141C3.88391 21.744 3.78507 21.755 3.68692 21.7467C3.58876 21.7383 3.49321 21.7108 3.40572 21.6655C3.31823 21.6202 3.24052 21.5582 3.17701 21.4829C3.1135 21.4076 3.06545 21.3205 3.03559 21.2266C3.00574 21.1327 2.99467 21.0339 3.00301 20.9357C3.01135 20.8376 3.03894 20.742 3.08421 20.6545C3.12948 20.5671 3.19154 20.4893 3.26684 20.4258C3.34215 20.3623 3.42922 20.3143 3.52309 20.2844L9.5231 18.3747L3.52309 16.4641C3.42663 16.4365 3.33668 16.3898 3.25859 16.3268C3.18049 16.2638 3.11583 16.1858 3.06843 16.0973C3.02104 16.0089 2.99187 15.9118 2.98266 15.8119C2.97345 15.712 2.98438 15.6112 3.01481 15.5156C3.04524 15.42 3.09455 15.3315 3.15981 15.2552C3.22507 15.179 3.30497 15.1167 3.39476 15.0719C3.48456 15.0271 3.58242 15.0008 3.68257 14.9945C3.78271 14.9883 3.8831 15.0021 3.97778 15.0354L12 17.5872L20.0222 15.0354C20.1168 15.0021 20.2172 14.9883 20.3174 14.9945C20.4175 15.0008 20.5154 15.0271 20.6052 15.0719C20.695 15.1167 20.7749 15.179 20.8401 15.2552C20.9054 15.3315 20.9547 15.42 20.9851 15.5156C21.0156 15.6112 21.0265 15.712 21.0173 15.8119C21.0081 15.9118 20.9789 16.0089 20.9315 16.0973C20.8841 16.1858 20.8195 16.2638 20.7414 16.3268C20.6633 16.3898 20.5733 16.4365 20.4768 16.4641L14.4768 18.3747L20.4768 20.2844C20.5707 20.3143 20.6578 20.3623 20.7331 20.4258C20.8084 20.4893 20.8705 20.567 20.9158 20.6545C20.961 20.742 20.9886 20.8376 20.997 20.9357C21.0053 21.0339 20.9942 21.1327 20.9643 21.2266ZM6.37497 10.1247C6.37497 8.24035 7.29091 6.29317 9.02247 4.49973C9.79942 3.69178 10.6667 2.97583 11.6072 2.36598C11.7253 2.29334 11.8613 2.25488 12 2.25488C12.1387 2.25488 12.2746 2.29334 12.3928 2.36598C12.6065 2.49254 17.625 5.63223 17.625 10.1247C17.625 11.6166 17.0323 13.0473 15.9774 14.1022C14.9226 15.1571 13.4918 15.7497 12 15.7497C10.5081 15.7497 9.07739 15.1571 8.02249 14.1022C6.9676 13.0473 6.37497 11.6166 6.37497 10.1247ZM12 14.2497C12.3978 14.2497 12.7793 14.0917 13.0606 13.8104C13.3419 13.5291 13.5 13.1476 13.5 12.7497C13.5 11.4775 12.5625 10.4566 12 9.95692C11.4375 10.4566 10.5 11.4775 10.5 12.7497C10.5 13.1476 10.658 13.5291 10.9393 13.8104C11.2206 14.0917 11.6021 14.2497 12 14.2497ZM7.87497 10.1247C7.87464 11.1802 8.2805 12.1954 9.00841 12.9597C9.00841 12.8904 8.99997 12.82 8.99997 12.7497C8.99997 10.1247 11.4787 8.44567 11.5837 8.37535C11.707 8.29312 11.8518 8.24924 12 8.24924C12.1481 8.24924 12.293 8.29312 12.4162 8.37535C12.5212 8.44567 15 10.1247 15 12.7497C15 12.82 15 12.8904 14.9915 12.9597C15.7194 12.1954 16.1253 11.1802 16.125 10.1247C16.125 7.12473 13.1006 4.68723 12 3.90535C10.9003 4.68723 7.87497 7.12473 7.87497 10.1247Z" fill="black"/>
</g>
</svg>
