<svg width="32" height="32" viewBox="0 0 32 32" fill="none" xmlns="http://www.w3.org/2000/svg">
<circle cx="16" cy="16" r="16" fill="#F0F0F0"/>
<path d="M21.3438 11.1875V13.8438C21.3438 13.9846 21.2878 14.1198 21.1882 14.2194C21.0885 14.319 20.9534 14.375 20.8125 14.375C20.6716 14.375 20.5365 14.319 20.4368 14.2194C20.3372 14.1198 20.2812 13.9846 20.2812 13.8438V11.7188H18.1562C18.0154 11.7188 17.8802 11.6628 17.7806 11.5632C17.681 11.4635 17.625 11.3284 17.625 11.1875C17.625 11.0466 17.681 10.9115 17.7806 10.8118C17.8802 10.7122 18.0154 10.6562 18.1562 10.6562H20.8125C20.9534 10.6562 21.0885 10.7122 21.1882 10.8118C21.2878 10.9115 21.3438 11.0466 21.3438 11.1875ZM12.8438 21.2812H10.7188V19.1562C10.7188 19.0154 10.6628 18.8802 10.5632 18.7806C10.4635 18.681 10.3284 18.625 10.1875 18.625C10.0466 18.625 9.91148 18.681 9.81185 18.7806C9.71222 18.8802 9.65625 19.0154 9.65625 19.1562V21.8125C9.65625 21.9534 9.71222 22.0885 9.81185 22.1882C9.91148 22.2878 10.0466 22.3438 10.1875 22.3438H12.8438C12.9846 22.3438 13.1198 22.2878 13.2194 22.1882C13.319 22.0885 13.375 21.9534 13.375 21.8125C13.375 21.6716 13.319 21.5365 13.2194 21.4368C13.1198 21.3372 12.9846 21.2812 12.8438 21.2812ZM20.8125 18.625C20.6716 18.625 20.5365 18.681 20.4368 18.7806C20.3372 18.8802 20.2812 19.0154 20.2812 19.1562V21.2812H18.1562C18.0154 21.2812 17.8802 21.3372 17.7806 21.4368C17.681 21.5365 17.625 21.6716 17.625 21.8125C17.625 21.9534 17.681 22.0885 17.7806 22.1882C17.8802 22.2878 18.0154 22.3438 18.1562 22.3438H20.8125C20.9534 22.3438 21.0885 22.2878 21.1882 22.1882C21.2878 22.0885 21.3438 21.9534 21.3438 21.8125V19.1562C21.3438 19.0154 21.2878 18.8802 21.1882 18.7806C21.0885 18.681 20.9534 18.625 20.8125 18.625ZM12.8438 10.6562H10.1875C10.0466 10.6562 9.91148 10.7122 9.81185 10.8118C9.71222 10.9115 9.65625 11.0466 9.65625 11.1875V13.8438C9.65625 13.9846 9.71222 14.1198 9.81185 14.2194C9.91148 14.319 10.0466 14.375 10.1875 14.375C10.3284 14.375 10.4635 14.319 10.5632 14.2194C10.6628 14.1198 10.7188 13.9846 10.7188 13.8438V11.7188H12.8438C12.9846 11.7188 13.1198 11.6628 13.2194 11.5632C13.319 11.4635 13.375 11.3284 13.375 11.1875C13.375 11.0466 13.319 10.9115 13.2194 10.8118C13.1198 10.7122 12.9846 10.6562 12.8438 10.6562Z" fill="#575F60"/>
</svg>
