<svg xmlns="http://www.w3.org/2000/svg" width="17" height="17" viewBox="0 0 17 17" fill="none">
  <path d="M14.3438 3.1875V5.84375C14.3438 5.98465 14.2878 6.11977 14.1882 6.2194C14.0885 6.31903 13.9534 6.375 13.8125 6.375C13.6716 6.375 13.5365 6.31903 13.4368 6.2194C13.3372 6.11977 13.2812 5.98465 13.2812 5.84375V3.71875H11.1562C11.0154 3.71875 10.8802 3.66278 10.7806 3.56315C10.681 3.46352 10.625 3.3284 10.625 3.1875C10.625 3.0466 10.681 2.91148 10.7806 2.81185C10.8802 2.71222 11.0154 2.65625 11.1562 2.65625H13.8125C13.9534 2.65625 14.0885 2.71222 14.1882 2.81185C14.2878 2.91148 14.3438 3.0466 14.3438 3.1875ZM5.84375 13.2812H3.71875V11.1562C3.71875 11.0154 3.66278 10.8802 3.56315 10.7806C3.46352 10.681 3.3284 10.625 3.1875 10.625C3.0466 10.625 2.91148 10.681 2.81185 10.7806C2.71222 10.8802 2.65625 11.0154 2.65625 11.1562V13.8125C2.65625 13.9534 2.71222 14.0885 2.81185 14.1882C2.91148 14.2878 3.0466 14.3438 3.1875 14.3438H5.84375C5.98465 14.3438 6.11977 14.2878 6.2194 14.1882C6.31903 14.0885 6.375 13.9534 6.375 13.8125C6.375 13.6716 6.31903 13.5365 6.2194 13.4368C6.11977 13.3372 5.98465 13.2812 5.84375 13.2812ZM13.8125 10.625C13.6716 10.625 13.5365 10.681 13.4368 10.7806C13.3372 10.8802 13.2812 11.0154 13.2812 11.1562V13.2812H11.1562C11.0154 13.2812 10.8802 13.3372 10.7806 13.4368C10.681 13.5365 10.625 13.6716 10.625 13.8125C10.625 13.9534 10.681 14.0885 10.7806 14.1882C10.8802 14.2878 11.0154 14.3438 11.1562 14.3438H13.8125C13.9534 14.3438 14.0885 14.2878 14.1882 14.1882C14.2878 14.0885 14.3438 13.9534 14.3438 13.8125V11.1562C14.3438 11.0154 14.2878 10.8802 14.1882 10.7806C14.0885 10.681 13.9534 10.625 13.8125 10.625ZM5.84375 2.65625H3.1875C3.0466 2.65625 2.91148 2.71222 2.81185 2.81185C2.71222 2.91148 2.65625 3.0466 2.65625 3.1875V5.84375C2.65625 5.98465 2.71222 6.11977 2.81185 6.2194C2.91148 6.31903 3.0466 6.375 3.1875 6.375C3.3284 6.375 3.46352 6.31903 3.56315 6.2194C3.66278 6.11977 3.71875 5.98465 3.71875 5.84375V3.71875H5.84375C5.98465 3.71875 6.11977 3.66278 6.2194 3.56315C6.31903 3.46352 6.375 3.3284 6.375 3.1875C6.375 3.0466 6.31903 2.91148 6.2194 2.81185C6.11977 2.71222 5.98465 2.65625 5.84375 2.65625Z" fill="#575F60"/>
</svg>