<svg width="70" height="70" viewBox="0 0 70 70" fill="none" xmlns="http://www.w3.org/2000/svg">
<g style="mix-blend-mode:darken">
<circle cx="35" cy="35" r="35" fill="#B78D58"/>
</g>
<path d="M49.5711 44.9842C47.4889 41.3844 44.2801 38.8031 40.5354 37.5795C42.3877 36.4768 43.8268 34.7966 44.6318 32.7968C45.4367 30.797 45.563 28.5883 44.9911 26.5099C44.4193 24.4314 43.181 22.5981 41.4664 21.2915C39.7518 19.985 37.6557 19.2773 35.5 19.2773C33.3444 19.2773 31.2483 19.985 29.5337 21.2915C27.8191 22.5981 26.5808 24.4314 26.009 26.5099C25.4371 28.5883 25.5634 30.797 26.3683 32.7968C27.1733 34.7966 28.6124 36.4768 30.4647 37.5795C26.72 38.8018 23.5112 41.383 21.429 44.9842C21.3526 45.1087 21.3019 45.2472 21.28 45.3916C21.258 45.536 21.2652 45.6834 21.3012 45.8249C21.3371 45.9665 21.401 46.0995 21.4891 46.2159C21.5772 46.3324 21.6878 46.4301 21.8143 46.5031C21.9407 46.5762 22.0806 46.6231 22.2255 46.6413C22.3704 46.6594 22.5175 46.6484 22.6581 46.6087C22.7987 46.5691 22.9299 46.5017 23.044 46.4105C23.1581 46.3194 23.2528 46.2063 23.3225 46.0779C25.8983 41.6264 30.451 38.9686 35.5 38.9686C40.5491 38.9686 45.1018 41.6264 47.6776 46.0779C47.7473 46.2063 47.842 46.3194 47.9561 46.4105C48.0702 46.5017 48.2014 46.5691 48.342 46.6087C48.4826 46.6484 48.6297 46.6594 48.7746 46.6413C48.9195 46.6231 49.0594 46.5762 49.1858 46.5031C49.3123 46.4301 49.4229 46.3324 49.511 46.2159C49.5991 46.0995 49.663 45.9665 49.6989 45.8249C49.7349 45.6834 49.742 45.536 49.7201 45.3916C49.6981 45.2472 49.6475 45.1087 49.5711 44.9842ZM27.8438 29.1248C27.8438 27.6105 28.2928 26.1303 29.1341 24.8712C29.9754 23.6122 31.1711 22.6308 32.5701 22.0514C33.9691 21.4719 35.5085 21.3203 36.9937 21.6157C38.4789 21.9111 39.8431 22.6403 40.9138 23.711C41.9846 24.7818 42.7138 26.146 43.0092 27.6312C43.3046 29.1163 43.153 30.6557 42.5735 32.0547C41.994 33.4537 41.0127 34.6495 39.7536 35.4908C38.4946 36.332 37.0143 36.7811 35.5 36.7811C33.4702 36.7789 31.524 35.9716 30.0887 34.5362C28.6533 33.1008 27.846 31.1547 27.8438 29.1248Z" fill="#F0F0F0"/>
</svg>
