<svg width="32" height="32" viewBox="0 0 32 32" fill="none" xmlns="http://www.w3.org/2000/svg">
<circle cx="16" cy="16" r="16" fill="#F0F0F0"/>
<path d="M19.9062 9.125C18.293 9.125 16.8805 9.81875 16 10.9914C15.1195 9.81875 13.707 9.125 12.0938 9.125C10.8096 9.12645 9.57837 9.63723 8.6703 10.5453C7.76223 11.4534 7.25145 12.6846 7.25 13.9688C7.25 19.4375 15.3586 23.8641 15.7039 24.0469C15.7949 24.0958 15.8967 24.1215 16 24.1215C16.1033 24.1215 16.2051 24.0958 16.2961 24.0469C16.6414 23.8641 24.75 19.4375 24.75 13.9688C24.7486 12.6846 24.2378 11.4534 23.3297 10.5453C22.4216 9.63723 21.1904 9.12645 19.9062 9.125ZM16 22.7813C14.5734 21.95 8.5 18.1633 8.5 13.9688C8.50124 13.016 8.88026 12.1026 9.55396 11.429C10.2276 10.7553 11.141 10.3762 12.0938 10.375C13.6133 10.375 14.8891 11.1844 15.4219 12.4844C15.469 12.599 15.5491 12.6971 15.652 12.7661C15.7549 12.8351 15.8761 12.8719 16 12.8719C16.1239 12.8719 16.2451 12.8351 16.348 12.7661C16.4509 12.6971 16.531 12.599 16.5781 12.4844C17.1109 11.182 18.3867 10.375 19.9062 10.375C20.859 10.3762 21.7724 10.7553 22.446 11.429C23.1197 12.1026 23.4988 13.016 23.5 13.9688C23.5 18.157 17.425 21.9492 16 22.7813Z" fill="black"/>
</svg>
