<svg width="19" height="19" viewBox="0 0 19 19" fill="none" xmlns="http://www.w3.org/2000/svg">
<g id="Icon">
<path id="Vector" d="M12.0706 4.11014C11.3906 4.11014 10.7906 4.33014 10.2706 4.77014C9.75062 5.21014 9.43062 5.75014 9.31062 6.39014H1.93062C1.77062 6.39014 1.64062 6.44014 1.54062 6.54014C1.44063 6.64014 1.39062 6.77014 1.39062 6.93014C1.39062 7.09014 1.44063 7.23014 1.54062 7.35014C1.64062 7.47014 1.77062 7.53014 1.93062 7.53014H9.31062C9.43062 8.17014 9.75062 8.70014 10.2706 9.12014C10.7906 9.54014 11.3906 9.75014 12.0706 9.75014C12.7506 9.75014 13.3406 9.54014 13.8406 9.12014C14.3406 8.70014 14.6706 8.17014 14.8306 7.53014H16.5706C16.7306 7.53014 16.8606 7.47014 16.9606 7.35014C17.0606 7.23014 17.1106 7.09014 17.1106 6.93014C17.1106 6.77014 17.0606 6.64014 16.9606 6.54014C16.8606 6.44014 16.7306 6.39014 16.5706 6.39014H14.8306C14.6706 5.75014 14.3406 5.21014 13.8406 4.77014C13.3406 4.33014 12.7506 4.11014 12.0706 4.11014ZM12.0706 5.25014C12.5506 5.25014 12.9506 5.42014 13.2706 5.76014C13.5906 6.10014 13.7506 6.50014 13.7506 6.96014C13.7506 7.42014 13.5906 7.81014 13.2706 8.13014C12.9506 8.45014 12.5506 8.61014 12.0706 8.61014C11.5906 8.61014 11.1906 8.45014 10.8706 8.13014C10.5506 7.81014 10.3906 7.42014 10.3906 6.96014C10.3906 6.50014 10.5506 6.10014 10.8706 5.76014C11.1906 5.42014 11.5906 5.25014 12.0706 5.25014ZM6.43062 9.75014C5.75063 9.75014 5.16062 9.96014 4.66062 10.3801C4.16062 10.8001 3.83063 11.3501 3.67062 12.0301H1.93062C1.77062 12.0301 1.64062 12.0801 1.54062 12.1801C1.44063 12.2801 1.39062 12.4101 1.39062 12.5701C1.39062 12.7301 1.44063 12.8601 1.54062 12.9601C1.64062 13.0601 1.77062 13.1101 1.93062 13.1101H3.67062C3.83063 13.7901 4.16062 14.3401 4.66062 14.7601C5.16062 15.1801 5.75063 15.3901 6.43062 15.3901C7.11062 15.3901 7.71062 15.1801 8.23062 14.7601C8.75062 14.3401 9.07062 13.7901 9.19062 13.1101H16.5706C16.7306 13.1101 16.8606 13.0601 16.9606 12.9601C17.0606 12.8601 17.1106 12.7301 17.1106 12.5701C17.1106 12.4101 17.0606 12.2801 16.9606 12.1801C16.8606 12.0801 16.7306 12.0301 16.5706 12.0301H9.19062C9.07062 11.3501 8.75062 10.8001 8.23062 10.3801C7.71062 9.96014 7.11062 9.75014 6.43062 9.75014ZM6.43062 10.8901C6.91062 10.8901 7.31063 11.0501 7.63062 11.3701C7.95062 11.6901 8.11062 12.0901 8.11062 12.5701C8.11062 13.0501 7.95062 13.4501 7.63062 13.7701C7.31063 14.0901 6.91062 14.2501 6.43062 14.2501C5.95062 14.2501 5.55062 14.0901 5.23062 13.7701C4.91062 13.4501 4.75062 13.0501 4.75062 12.5701C4.75062 12.0901 4.91062 11.6901 5.23062 11.3701C5.55062 11.0501 5.95062 10.8901 6.43062 10.8901Z" fill="#575F60"/>
</g>
</svg>
