<svg width="16" height="16" viewBox="0 0 16 16" fill="none" xmlns="http://www.w3.org/2000/svg">
<g clip-path="url(#clip0_274_422)">
<path d="M14.504 10.7606L11.0076 9.1938L10.9979 9.18934C10.8164 9.11171 10.6184 9.08055 10.4218 9.09869C10.2252 9.11684 10.0363 9.1837 9.87204 9.29325C9.8527 9.30602 9.83412 9.3199 9.81637 9.33481L8.00989 10.8749C6.86544 10.319 5.68387 9.1463 5.12798 8.01669L6.67024 6.18274C6.68508 6.16419 6.69919 6.14563 6.71255 6.12559C6.81974 5.96179 6.88477 5.77403 6.90187 5.57903C6.91896 5.38402 6.88758 5.18781 6.81051 5.00786V4.99895L5.2393 1.49657C5.13743 1.26149 4.96226 1.06567 4.73995 0.938324C4.51764 0.810982 4.2601 0.758954 4.00579 0.790006C3.0001 0.922343 2.07698 1.41624 1.40882 2.17945C0.740673 2.94266 0.373188 3.923 0.375007 4.93735C0.375007 10.8303 5.16954 15.6249 11.0625 15.6249C12.0769 15.6267 13.0572 15.2592 13.8204 14.591C14.5836 13.9229 15.0775 12.9998 15.2099 11.9941C15.241 11.7398 15.189 11.4824 15.0618 11.2601C14.9346 11.0378 14.739 10.8625 14.504 10.7606ZM11.0625 14.4374C8.54379 14.4346 6.12903 13.4328 4.34803 11.6518C2.56703 9.87083 1.56526 7.45606 1.56251 4.93735C1.55971 4.2126 1.82083 3.5116 2.29708 2.96529C2.77333 2.41897 3.43215 2.06469 4.15051 1.9686C4.15022 1.97156 4.15022 1.97454 4.15051 1.97751L5.70911 5.46579L4.17501 7.30196C4.15944 7.31988 4.14529 7.33898 4.1327 7.35911C4.02101 7.53049 3.95549 7.72782 3.94249 7.93197C3.92949 8.13613 3.96944 8.34017 4.05848 8.52434C4.73091 9.89962 6.11657 11.2749 7.50669 11.9466C7.69221 12.0348 7.89744 12.0734 8.10232 12.0585C8.30721 12.0437 8.50475 11.976 8.67563 11.862C8.69469 11.8491 8.71302 11.8352 8.73055 11.8204L10.5348 10.2811L14.0231 11.8434C14.0231 11.8434 14.029 11.8434 14.0313 11.8434C13.9363 12.5628 13.5826 13.2229 13.0362 13.7004C12.4898 14.1778 11.7881 14.4398 11.0625 14.4374Z" fill="#575F60"/>
</g>
<defs>
<clipPath id="clip0_274_422">
<rect width="16" height="16" fill="white"/>
</clipPath>
</defs>
</svg>
