<svg width="24" height="24" viewBox="0 0 24 24" fill="none" xmlns="http://www.w3.org/2000/svg">
<g id="icon-park-outline:quote">
<path id="Vector" fill-rule="evenodd" clip-rule="evenodd" d="M9.42708 4.55804C5.66208 6.97604 3.57041 9.79054 3.15208 13.0015C2.50058 18 6.97057 20.4465 9.23557 18.2485C11.5006 16.0505 10.1431 13.26 8.50307 12.497C6.86307 11.734 5.86008 12 6.03508 10.9805C6.21008 9.96103 8.54307 7.13554 10.5931 5.81954C10.6656 5.75769 10.7119 5.67055 10.7225 5.57581C10.7331 5.48108 10.7072 5.38587 10.6501 5.30954L10.1431 4.65004C9.92308 4.36404 9.71208 4.37503 9.42708 4.55753M19.3401 4.55804C15.5751 6.97604 13.4834 9.79054 13.0651 13.0015C12.4131 18 16.8831 20.4465 19.1481 18.2485C21.4131 16.0505 20.0556 13.26 18.4151 12.497C16.7746 11.734 15.7721 12 15.9471 10.9805C16.1221 9.96103 18.4556 7.13554 20.5056 5.81954C20.578 5.75762 20.6242 5.67044 20.6347 5.57571C20.6452 5.48098 20.6192 5.38581 20.5621 5.30954L20.0556 4.65004C19.8356 4.36404 19.6246 4.37503 19.3401 4.55753" fill="white"/>
</g>
</svg>
