<svg width="24" height="24" viewBox="0 0 24 24" fill="none" xmlns="http://www.w3.org/2000/svg">
<g id="icon-park-outline:quote">
<path id="Vector" fill-rule="evenodd" clip-rule="evenodd" d="M14.5729 19.442C18.3379 17.024 20.4296 14.2095 20.8479 10.9985C21.4994 5.99996 17.0294 3.55346 14.7644 5.75146C12.4994 7.94946 13.8569 10.74 15.4969 11.503C17.1369 12.266 18.1399 12 17.9649 13.0195C17.7899 14.039 15.4569 16.8645 13.4069 18.1805C13.3344 18.2423 13.2881 18.3295 13.2775 18.4242C13.2669 18.5189 13.2928 18.6141 13.3499 18.6905L13.8569 19.35C14.0769 19.636 14.2879 19.625 14.5729 19.4425M4.65993 19.442C8.42493 17.024 10.5166 14.2095 10.9349 10.9985C11.5869 5.99996 7.11693 3.55346 4.85193 5.75146C2.58693 7.94946 3.94443 10.74 5.58493 11.503C7.22543 12.266 8.22793 12 8.05293 13.0195C7.87792 14.039 5.54443 16.8645 3.49443 18.1805C3.42196 18.2424 3.37579 18.3296 3.36529 18.4243C3.3548 18.519 3.38077 18.6142 3.43793 18.6905L3.94443 19.35C4.16442 19.636 4.37543 19.625 4.65993 19.4425" fill="white"/>
</g>
</svg>
