<svg width="17" height="17" viewBox="0 0 17 17" fill="none" xmlns="http://www.w3.org/2000/svg">
<g id="SpeakerSimpleHigh">
<path id="Vector" d="M10.8581 1.64743C10.7687 1.6039 10.669 1.5863 10.5702 1.59663C10.4713 1.60696 10.3773 1.64481 10.2989 1.70587L5.66113 5.31239H2.65625C2.37446 5.31239 2.10421 5.42433 1.90495 5.62359C1.70569 5.82285 1.59375 6.0931 1.59375 6.37489V10.6249C1.59375 10.9067 1.70569 11.1769 1.90495 11.3762C2.10421 11.5755 2.37446 11.6874 2.65625 11.6874H5.66113L10.2989 15.2939C10.3774 15.3549 10.4715 15.3927 10.5703 15.4029C10.6692 15.4132 10.769 15.3954 10.8583 15.3518C10.9476 15.3081 11.0229 15.2403 11.0755 15.156C11.1282 15.0717 11.1562 14.9743 11.1562 14.8749V2.12489C11.1563 2.02537 11.1283 1.92784 11.0756 1.84342C11.0229 1.75901 10.9475 1.6911 10.8581 1.64743ZM10.0938 13.7885L6.16981 10.7371C6.07677 10.6642 5.96194 10.6247 5.84375 10.6249H2.65625V6.37489H5.84375C5.96194 6.37509 6.07677 6.33556 6.16981 6.26267L10.0938 3.2113V13.7885ZM13.8125 6.90614V10.0936C13.8125 10.2345 13.7565 10.3697 13.6569 10.4693C13.5573 10.5689 13.4221 10.6249 13.2812 10.6249C13.1404 10.6249 13.0052 10.5689 12.9056 10.4693C12.806 10.3697 12.75 10.2345 12.75 10.0936V6.90614C12.75 6.76525 12.806 6.63012 12.9056 6.53049C13.0052 6.43086 13.1404 6.37489 13.2812 6.37489C13.4221 6.37489 13.5573 6.43086 13.6569 6.53049C13.7565 6.63012 13.8125 6.76525 13.8125 6.90614ZM15.9375 5.84364V11.1561C15.9375 11.297 15.8815 11.4322 15.7819 11.5318C15.6823 11.6314 15.5471 11.6874 15.4062 11.6874C15.2654 11.6874 15.1302 11.6314 15.0306 11.5318C14.931 11.4322 14.875 11.297 14.875 11.1561V5.84364C14.875 5.70275 14.931 5.56762 15.0306 5.46799C15.1302 5.36836 15.2654 5.31239 15.4062 5.31239C15.5471 5.31239 15.6823 5.36836 15.7819 5.46799C15.8815 5.56762 15.9375 5.70275 15.9375 5.84364Z" fill="#575F60"/>
</g>
</svg>
