<svg xmlns="http://www.w3.org/2000/svg" width="26" height="26" viewBox="0 0 26 26" fill="none">
  <path d="M23.5503 17.7814C23.3692 19.1576 22.6934 20.4208 21.649 21.3351C20.6046 22.2494 19.2631 22.7523 17.875 22.7498C9.81095 22.7498 3.25001 16.1889 3.25001 8.12479C3.24752 6.73673 3.75039 5.39522 4.66471 4.35083C5.57902 3.30643 6.84224 2.63057 8.21845 2.44948C8.56645 2.40699 8.91887 2.47819 9.22309 2.65244C9.52731 2.8267 9.76701 3.09467 9.90642 3.41636L12.0514 8.20503V8.21722C12.1581 8.46346 12.2022 8.7323 12.1797 8.99973C12.1572 9.26716 12.0688 9.52486 11.9224 9.7498C11.9042 9.77722 11.8849 9.80261 11.8645 9.828L9.75001 12.3346C10.5107 13.8803 12.1276 15.483 13.6937 16.2457L16.1657 14.1424C16.19 14.122 16.2154 14.103 16.2419 14.0855C16.4666 13.9356 16.7252 13.8441 16.9942 13.8193C17.2632 13.7944 17.5342 13.8371 17.7826 13.9433L17.7958 13.9494L22.5804 16.0934C22.9027 16.2323 23.1713 16.4718 23.3461 16.7761C23.5209 17.0803 23.5926 17.433 23.5503 17.7814Z" fill="#F0F0F0"/>
</svg>