<svg width="24" height="24" viewBox="0 0 24 24" fill="none" xmlns="http://www.w3.org/2000/svg">
  <path d="M12 2C6.48 2 2 6.48 2 12C2 13.7 2.43 15.3 3.17 16.7L2 22L7.3 20.83C8.7 21.57 10.3 22 12 22C17.52 22 22 17.52 22 12C22 6.48 17.52 2 12 2ZM17 15.5C16.8 16 16.1 16.5 15.5 16.6C14.9 16.7 14.2 16.8 12.2 15.9C9.7 14.8 8.2 12.3 8.1 12.2C8 12.1 7 10.8 7 9.4C7 8 7.7 7.3 8 7C8.3 6.7 8.6 6.7 8.8 6.7C9 6.7 9.2 6.7 9.4 6.7C9.6 6.7 9.9 6.6 10.2 7.2C10.5 7.8 11.1 9.2 11.2 9.3C11.3 9.4 11.3 9.6 11.2 9.8C11.1 10 11 10.1 10.9 10.3C10.8 10.5 10.6 10.7 10.5 10.8C10.4 10.9 10.2 11.1 10.4 11.4C10.6 11.7 11.1 12.5 11.8 13.2C12.7 14 13.5 14.3 13.8 14.4C14.1 14.5 14.3 14.5 14.4 14.3C14.5 14.1 15 13.6 15.2 13.3C15.4 13 15.6 13.1 15.8 13.2C16 13.3 17.4 14 17.6 14.1C17.8 14.2 18 14.3 18.1 14.4C18.1 14.6 18.1 15.1 17.9 15.5H17Z" fill="currentColor"/>
</svg> 